P2
20 20
21
0	0	0	0	0	0	0	0	0	0	0	0	0	0	0	0	0	0	0	21
0	0	0	0	0	0	0	0	0	0	0	0	0	0	0	0	0	0	20	21
0	0	0	0	0	0	0	0	0	0	0	0	0	0	0	0	0	19	20	21
0	0	0	0	0	0	0	0	0	0	0	0	0	0	0	0	18	19	20	21
0	0	0	0	0	0	0	0	0	0	0	0	0	0	0	17	18	19	20	21
0	0	0	0	0	0	0	0	0	0	0	0	0	0	16	17	18	19	20	21
0	0	0	0	0	0	0	0	0	0	0	0	0	15	16	17	18	19	20	21
0	0	0	0	0	0	0	0	0	0	0	0	14	15	16	17	18	19	20	21
0	0	0	0	0	0	0	0	0	0	12	0	14	15	16	17	18	19	20	21
0	0	0	0	0	7	0	0	0	0	12	0	14	15	16	17	18	19	20	21
0	0	0	0	0	7	8	0	0	0	12	0	14	15	16	17	18	19	20	21
0	0	0	0	0	7	8	0	0	11	12	0	14	15	16	17	18	19	20	21
0	0	0	0	0	7	8	0	10	11	12	0	14	15	16	17	18	19	20	21
0	0	0	0	0	7	8	9	10	11	12	0	14	15	16	17	18	19	20	21
0	0	0	1	0	7	8	9	10	11	12	0	14	15	16	17	18	19	20	21
0	0	1	1	0	7	8	9	10	11	12	0	14	15	16	17	18	19	20	21
0	0	1	1	6	7	8	9	10	11	12	0	14	15	16	17	18	19	20	21
0	0	1	1	6	7	8	9	10	11	12	13	14	15	16	17	18	19	20	21
0	3	1	1	6	7	8	9	10	11	12	13	14	15	16	17	18	19	20	21
2	3	1	1	6	7	8	9	10	11	12	13	14	15	16	17	18	19	20	21
