P2
20 20
21
0	0	0	0	0	0	0	0	0	0	0	0	0	0	0	0	0	19	0	0
0	0	0	0	6	0	0	0	0	0	0	0	0	0	0	0	0	19	0	0
0	0	0	0	6	0	0	0	0	0	0	0	0	0	0	17	0	19	0	0
0	0	0	0	6	7	0	0	0	0	0	0	0	0	0	17	0	19	0	0
0	0	0	0	6	7	0	0	0	0	0	0	0	0	0	17	0	19	20	0
0	0	1	0	6	7	0	0	0	0	0	0	0	0	0	17	0	19	20	0
0	0	1	0	6	7	0	0	0	0	0	0	0	15	0	17	0	19	20	0
0	0	1	0	6	7	0	0	0	0	0	13	0	15	0	17	0	19	20	0
0	0	1	0	6	7	0	0	0	0	0	13	14	15	0	17	0	19	20	0
0	0	1	0	6	7	0	0	0	0	12	13	14	15	0	17	0	19	20	0
0	0	1	0	6	7	0	0	0	0	12	13	14	15	0	17	18	19	20	0
0	0	1	0	6	7	0	0	0	11	12	13	14	15	0	17	18	19	20	0
0	0	1	0	6	7	0	9	0	11	12	13	14	15	0	17	18	19	20	0
0	0	1	0	6	7	8	9	0	11	12	13	14	15	0	17	18	19	20	0
0	0	1	0	6	7	8	9	10	11	12	13	14	15	0	17	18	19	20	0
0	0	1	0	6	7	8	9	10	11	12	13	14	15	0	17	18	19	20	21
2	0	1	0	6	7	8	9	10	11	12	13	14	15	0	17	18	19	20	21
2	3	1	0	6	7	8	9	10	11	12	13	14	15	0	17	18	19	20	21
2	3	1	0	6	7	8	9	10	11	12	13	14	15	16	17	18	19	20	21
2	3	1	1	6	7	8	9	10	11	12	13	14	15	16	17	18	19	20	21
