P2
20 20
21
0	0	0	0	0	0	0	0	0	0	0	0	0	0	0	0	0	19	0	0
0	0	0	0	0	0	0	0	0	0	0	0	0	0	0	1	0	19	0	0
0	0	0	0	0	0	0	0	0	0	0	0	0	0	1	1	0	19	0	0
0	0	0	0	6	0	0	0	0	0	0	0	0	0	1	1	0	19	0	0
0	0	0	0	6	0	0	0	0	0	0	0	0	0	1	1	0	19	20	0
0	0	0	5	6	0	0	0	0	0	0	0	0	0	1	1	0	19	20	0
0	0	0	5	6	0	0	0	0	0	0	0	14	0	1	1	0	19	20	0
0	0	0	5	6	0	0	0	0	0	12	0	14	0	1	1	0	19	20	0
0	0	0	5	6	0	0	0	0	0	12	13	14	0	1	1	0	19	20	0
0	0	0	5	6	0	0	0	0	11	12	13	14	0	1	1	0	19	20	0
0	0	0	5	6	0	0	0	0	11	12	13	14	0	1	1	18	19	20	0
0	0	0	5	6	0	0	0	10	11	12	13	14	0	1	1	18	19	20	0
0	0	0	5	6	0	8	0	10	11	12	13	14	0	1	1	18	19	20	0
0	0	0	5	6	7	8	0	10	11	12	13	14	0	1	1	18	19	20	0
0	0	0	5	6	7	8	9	10	11	12	13	14	0	1	1	18	19	20	0
0	0	0	5	6	7	8	9	10	11	12	13	14	0	1	1	18	19	20	21
2	0	0	5	6	7	8	9	10	11	12	13	14	0	1	1	18	19	20	21
2	3	0	5	6	7	8	9	10	11	12	13	14	0	1	1	18	19	20	21
2	3	0	5	6	7	8	9	10	11	12	13	14	15	1	1	18	19	20	21
2	3	4	5	6	7	8	9	10	11	12	13	14	15	1	1	18	19	20	21
