P2
20 20
21
0	0	0	0	0	0	0	0	0	0	0	0	0	0	0	0	0	0	0	21
0	0	0	0	0	0	0	0	0	0	0	0	0	0	0	0	0	0	20	21
0	0	0	0	0	0	0	9	0	0	0	0	0	0	0	0	0	0	20	21
0	0	0	0	6	0	0	9	0	0	0	0	0	0	0	0	0	0	20	21
0	0	0	0	6	0	0	9	0	0	0	0	0	0	0	17	0	0	20	21
0	0	0	0	6	0	0	9	0	0	0	0	0	0	0	17	0	19	20	21
0	0	0	5	6	0	0	9	0	0	0	0	0	0	0	17	0	19	20	21
0	0	0	5	6	0	0	9	0	0	12	0	0	0	0	17	0	19	20	21
0	0	1	5	6	0	0	9	0	0	12	0	0	0	0	17	0	19	20	21
0	0	1	5	6	0	0	9	10	0	12	0	0	0	0	17	0	19	20	21
0	0	1	5	6	0	0	9	10	0	12	13	0	0	0	17	0	19	20	21
0	0	1	5	6	0	0	9	10	0	12	13	0	0	16	17	0	19	20	21
0	0	1	5	6	0	0	9	10	0	12	13	0	15	16	17	0	19	20	21
0	0	1	5	6	0	0	9	10	0	12	13	14	15	16	17	0	19	20	21
0	0	1	5	6	0	8	9	10	0	12	13	14	15	16	17	0	19	20	21
0	0	1	5	6	7	8	9	10	0	12	13	14	15	16	17	0	19	20	21
0	0	1	5	6	7	8	9	10	11	12	13	14	15	16	17	0	19	20	21
0	0	1	5	6	7	8	9	10	11	12	13	14	15	16	17	18	19	20	21
2	0	1	5	6	7	8	9	10	11	12	13	14	15	16	17	18	19	20	21
2	1	1	5	6	7	8	9	10	11	12	13	14	15	16	17	18	19	20	21
