P2
20 20
21
0	0	0	0	0	0	0	0	0	0	0	0	0	0	0	0	0	0	0	21
0	0	0	0	0	0	0	0	0	0	0	0	0	1	0	0	0	0	0	21
0	0	0	0	0	0	0	9	0	0	0	0	0	1	0	0	0	0	0	21
0	0	0	0	6	0	0	9	0	0	0	0	0	1	0	0	0	0	0	21
0	0	0	0	6	0	0	9	0	0	0	0	0	1	0	0	18	0	0	21
0	0	0	0	6	0	0	9	0	0	0	0	0	1	0	0	18	0	20	21
0	0	0	5	6	0	0	9	0	0	0	0	0	1	0	0	18	0	20	21
0	0	0	5	6	0	0	9	0	0	12	0	0	1	0	0	18	0	20	21
0	3	0	5	6	0	0	9	0	0	12	0	0	1	0	0	18	0	20	21
0	3	0	5	6	0	0	9	10	0	12	0	0	1	0	0	18	0	20	21
0	3	0	5	6	0	0	9	10	0	12	13	0	1	0	0	18	0	20	21
0	3	0	5	6	0	0	9	10	0	12	13	0	1	0	17	18	0	20	21
0	3	0	5	6	0	0	9	10	0	12	13	0	1	16	17	18	0	20	21
0	3	0	5	6	0	0	9	10	0	12	13	1	1	16	17	18	0	20	21
0	3	0	5	6	0	8	9	10	0	12	13	1	1	16	17	18	0	20	21
0	3	0	5	6	7	8	9	10	0	12	13	1	1	16	17	18	0	20	21
0	3	0	5	6	7	8	9	10	11	12	13	1	1	16	17	18	0	20	21
0	3	0	5	6	7	8	9	10	11	12	13	1	1	16	17	18	19	20	21
2	3	0	5	6	7	8	9	10	11	12	13	1	1	16	17	18	19	20	21
2	3	4	5	6	7	8	9	10	11	12	13	1	1	16	17	18	19	20	21
