P2
20 20
21
0	0	0	0	0	0	0	0	0	0	0	0	0	0	0	0	0	0	0	21
0	0	0	0	0	0	0	0	0	0	0	0	0	0	0	0	0	0	20	21
0	0	0	0	0	0	0	0	0	0	0	0	0	0	0	1	0	0	20	21
0	0	0	0	0	0	8	0	0	0	0	0	0	0	0	1	0	0	20	21
0	0	0	0	0	0	8	0	0	0	0	0	0	0	16	1	0	0	20	21
0	0	0	0	0	0	8	0	0	0	0	0	0	0	16	1	0	19	20	21
0	0	0	5	0	0	8	0	0	0	0	0	0	0	16	1	0	19	20	21
0	0	0	5	0	0	8	0	0	11	0	0	0	0	16	1	0	19	20	21
0	0	4	5	0	0	8	0	0	11	0	0	0	0	16	1	0	19	20	21
0	0	4	5	0	0	8	9	0	11	0	0	0	0	16	1	0	19	20	21
0	0	4	5	0	0	8	9	0	11	12	0	0	0	16	1	0	19	20	21
0	0	4	5	0	0	8	9	0	11	12	0	0	15	16	1	0	19	20	21
0	0	4	5	0	0	8	9	0	11	12	0	14	15	16	1	0	19	20	21
0	0	4	5	0	0	8	9	0	11	12	13	14	15	16	1	0	19	20	21
0	0	4	5	0	7	8	9	0	11	12	13	14	15	16	1	0	19	20	21
0	0	4	5	6	7	8	9	0	11	12	13	14	15	16	1	0	19	20	21
0	0	4	5	6	7	8	9	10	11	12	13	14	15	16	1	0	19	20	21
0	0	4	5	6	7	8	9	10	11	12	13	14	15	16	1	1	19	20	21
2	0	4	5	6	7	8	9	10	11	12	13	14	15	16	1	1	19	20	21
2	3	4	5	6	7	8	9	10	11	12	13	14	15	16	1	1	19	20	21
