P2
20 20
21
0	0	0	0	0	0	0	0	0	0	0	0	0	0	0	0	0	0	0	21
0	0	0	0	0	0	0	0	0	0	0	0	0	0	0	0	0	0	20	21
0	0	0	0	0	0	0	0	0	0	0	0	0	0	0	0	0	19	20	21
0	0	0	0	0	0	0	0	0	0	0	0	0	0	0	0	18	19	20	21
0	0	0	0	0	0	0	0	0	0	0	0	0	0	0	17	18	19	20	21
0	0	0	0	0	0	0	0	0	0	0	0	0	0	16	17	18	19	20	21
0	0	0	0	0	0	0	0	0	0	0	0	14	0	16	17	18	19	20	21
0	0	0	0	0	0	0	9	0	0	0	0	14	0	16	17	18	19	20	21
0	0	0	0	0	1	0	9	0	0	0	0	14	0	16	17	18	19	20	21
0	0	0	0	6	1	0	9	0	0	0	0	14	0	16	17	18	19	20	21
0	0	0	0	6	1	0	9	10	0	0	0	14	0	16	17	18	19	20	21
0	0	0	0	6	1	0	9	10	0	0	13	14	0	16	17	18	19	20	21
0	0	0	0	6	1	0	9	10	0	12	13	14	0	16	17	18	19	20	21
0	0	0	0	6	1	0	9	10	11	12	13	14	0	16	17	18	19	20	21
0	0	0	5	6	1	0	9	10	11	12	13	14	0	16	17	18	19	20	21
0	0	4	5	6	1	0	9	10	11	12	13	14	0	16	17	18	19	20	21
0	0	4	5	6	1	1	9	10	11	12	13	14	0	16	17	18	19	20	21
0	0	4	5	6	1	1	9	10	11	12	13	14	15	16	17	18	19	20	21
0	3	4	5	6	1	1	9	10	11	12	13	14	15	16	17	18	19	20	21
2	3	4	5	6	1	1	9	10	11	12	13	14	15	16	17	18	19	20	21
