P2
20 20
21
0	0	0	0	0	0	0	0	0	0	0	0	0	0	0	0	0	0	0	21
0	0	0	0	0	0	0	0	0	0	0	0	0	0	0	0	0	0	20	21
0	0	0	0	0	0	0	0	0	0	0	0	0	0	0	0	0	19	20	21
0	0	0	0	0	0	0	0	0	0	0	0	0	0	0	0	18	19	20	21
0	0	0	0	0	0	0	0	0	0	0	0	0	15	0	0	18	19	20	21
0	0	0	0	0	0	0	0	0	0	0	0	0	15	0	17	18	19	20	21
0	0	0	0	0	7	0	0	0	0	0	0	0	15	0	17	18	19	20	21
0	0	0	0	0	7	0	0	10	0	0	0	0	15	0	17	18	19	20	21
0	0	0	0	1	7	0	0	10	0	0	0	0	15	0	17	18	19	20	21
0	0	0	0	1	7	8	0	10	0	0	0	0	15	0	17	18	19	20	21
0	0	0	0	1	7	8	0	10	11	0	0	0	15	0	17	18	19	20	21
0	0	0	0	1	7	8	0	10	11	0	0	14	15	0	17	18	19	20	21
0	0	0	0	1	7	8	0	10	11	0	13	14	15	0	17	18	19	20	21
0	0	0	0	1	7	8	0	10	11	12	13	14	15	0	17	18	19	20	21
0	0	0	1	1	7	8	0	10	11	12	13	14	15	0	17	18	19	20	21
0	0	4	1	1	7	8	0	10	11	12	13	14	15	0	17	18	19	20	21
0	0	4	1	1	7	8	9	10	11	12	13	14	15	0	17	18	19	20	21
0	0	4	1	1	7	8	9	10	11	12	13	14	15	16	17	18	19	20	21
0	3	4	1	1	7	8	9	10	11	12	13	14	15	16	17	18	19	20	21
2	3	4	1	1	7	8	9	10	11	12	13	14	15	16	17	18	19	20	21
