P2
20 20
21
0	0	0	0	0	0	0	0	0	0	0	0	14	0	0	0	0	0	0	0
0	0	0	0	0	0	0	0	0	0	0	0	14	0	0	17	0	0	0	0
0	0	0	0	0	7	0	0	0	0	0	0	14	0	0	17	0	0	0	0
0	0	0	5	0	7	0	0	0	0	0	0	14	0	0	17	0	0	0	0
0	0	0	5	0	7	0	0	0	0	0	0	14	0	0	17	0	0	0	21
0	0	0	5	0	7	0	0	0	0	0	0	14	0	0	17	0	0	20	21
0	0	0	5	0	7	0	0	10	0	0	0	14	0	0	17	0	0	20	21
0	0	0	5	0	7	0	0	10	0	0	13	14	0	0	17	0	0	20	21
0	0	0	5	0	7	0	0	10	0	12	13	14	0	0	17	0	0	20	21
0	0	0	5	0	7	0	0	10	0	12	13	14	0	0	17	0	19	20	21
0	0	0	5	6	7	0	0	10	0	12	13	14	0	0	17	0	19	20	21
0	0	0	5	6	7	0	0	10	1	12	13	14	0	0	17	0	19	20	21
0	0	0	5	6	7	8	0	10	1	12	13	14	0	0	17	0	19	20	21
0	0	0	5	6	7	8	0	10	1	12	13	14	15	0	17	0	19	20	21
0	0	0	5	6	7	8	0	10	1	12	13	14	15	0	17	18	19	20	21
0	0	0	5	6	7	8	1	10	1	12	13	14	15	0	17	18	19	20	21
0	0	0	5	6	7	8	1	10	1	12	13	14	15	16	17	18	19	20	21
0	0	4	5	6	7	8	1	10	1	12	13	14	15	16	17	18	19	20	21
0	3	4	5	6	7	8	1	10	1	12	13	14	15	16	17	18	19	20	21
2	3	4	5	6	7	8	1	10	1	12	13	14	15	16	17	18	19	20	21
