P2
20 20
21
0	0	0	0	0	0	0	0	0	0	0	0	14	0	0	0	0	0	0	0
0	0	0	0	0	0	0	0	0	0	0	0	14	0	0	1	0	0	0	0
0	0	0	0	0	0	0	0	0	0	0	0	14	0	0	1	18	0	0	0
0	0	0	0	0	0	0	0	0	0	0	0	14	0	16	1	18	0	0	0
0	0	0	0	0	0	0	0	0	0	0	0	14	0	16	1	18	0	0	21
0	0	0	0	0	0	0	0	0	0	0	0	14	0	16	1	18	0	20	21
0	0	0	0	0	0	0	0	0	0	0	0	14	15	16	1	18	0	20	21
0	0	0	0	0	0	0	0	0	0	0	1	14	15	16	1	18	0	20	21
0	0	0	0	0	0	0	0	0	0	0	1	14	15	16	1	18	19	20	21
0	0	0	0	0	0	0	0	0	0	12	1	14	15	16	1	18	19	20	21
0	0	0	0	0	0	0	0	0	11	12	1	14	15	16	1	18	19	20	21
0	0	0	0	0	0	0	0	10	11	12	1	14	15	16	1	18	19	20	21
0	0	0	0	0	0	0	9	10	11	12	1	14	15	16	1	18	19	20	21
0	0	0	0	0	0	8	9	10	11	12	1	14	15	16	1	18	19	20	21
0	0	0	0	0	7	8	9	10	11	12	1	14	15	16	1	18	19	20	21
0	0	0	0	6	7	8	9	10	11	12	1	14	15	16	1	18	19	20	21
0	0	0	5	6	7	8	9	10	11	12	1	14	15	16	1	18	19	20	21
0	0	4	5	6	7	8	9	10	11	12	1	14	15	16	1	18	19	20	21
0	3	4	5	6	7	8	9	10	11	12	1	14	15	16	1	18	19	20	21
2	3	4	5	6	7	8	9	10	11	12	1	14	15	16	1	18	19	20	21
