P2
20 20
21
0	0	0	0	0	0	0	0	0	0	0	0	14	0	0	0	0	0	0	0
0	0	0	0	0	0	0	0	0	0	0	0	14	0	0	17	0	0	0	0
0	0	0	0	0	7	0	0	0	0	0	0	14	0	0	17	0	0	0	0
0	0	0	0	0	7	0	0	0	0	0	0	14	0	16	17	0	0	0	0
0	0	0	0	0	7	0	0	0	0	0	0	14	0	16	17	0	0	0	21
0	0	0	0	0	7	0	0	0	0	0	0	14	0	16	17	0	0	20	21
0	0	0	0	0	7	0	0	10	0	0	0	14	0	16	17	0	0	20	21
0	0	0	0	0	7	0	0	10	0	0	1	14	0	16	17	0	0	20	21
0	0	0	0	0	7	0	0	10	0	12	1	14	0	16	17	0	0	20	21
0	0	0	0	0	7	0	0	10	0	12	1	14	0	16	17	0	19	20	21
0	0	0	0	0	7	0	9	10	0	12	1	14	0	16	17	0	19	20	21
0	0	0	0	0	7	0	9	10	11	12	1	14	0	16	17	0	19	20	21
0	0	0	0	0	7	1	9	10	11	12	1	14	0	16	17	0	19	20	21
0	0	0	0	0	7	1	9	10	11	12	1	14	15	16	17	0	19	20	21
0	0	0	0	0	7	1	9	10	11	12	1	14	15	16	17	18	19	20	21
0	0	0	0	6	7	1	9	10	11	12	1	14	15	16	17	18	19	20	21
0	0	0	5	6	7	1	9	10	11	12	1	14	15	16	17	18	19	20	21
0	0	4	5	6	7	1	9	10	11	12	1	14	15	16	17	18	19	20	21
0	3	4	5	6	7	1	9	10	11	12	1	14	15	16	17	18	19	20	21
2	3	4	5	6	7	1	9	10	11	12	1	14	15	16	17	18	19	20	21
