P2
20 20
21
0	0	0	0	0	0	0	0	0	11	0	0	0	0	0	0	0	0	0	0
0	0	0	0	0	0	0	0	0	11	0	0	0	0	0	0	0	0	0	21
0	0	0	0	0	0	0	0	0	11	0	0	0	0	0	0	18	0	0	21
0	0	0	0	0	0	0	9	0	11	0	0	0	0	0	0	18	0	0	21
0	0	0	0	0	0	0	9	10	11	0	0	0	0	0	0	18	0	0	21
0	0	0	0	0	0	0	9	10	11	0	13	0	0	0	0	18	0	0	21
0	0	0	0	0	0	0	9	10	11	0	13	14	0	0	0	18	0	0	21
0	0	0	0	0	0	8	9	10	11	0	13	14	0	0	0	18	0	0	21
0	0	0	0	0	0	8	9	10	11	0	13	14	0	0	0	18	1	0	21
0	0	0	0	0	0	8	9	10	11	0	13	14	0	0	0	18	1	20	21
0	0	0	0	0	0	8	9	10	11	12	13	14	0	0	0	18	1	20	21
0	0	0	0	0	0	8	9	10	11	12	13	14	0	0	17	18	1	20	21
0	0	0	0	0	0	8	9	10	11	12	13	14	0	16	17	18	1	20	21
0	0	0	0	0	0	8	9	10	11	12	13	14	1	16	17	18	1	20	21
0	0	0	0	0	7	8	9	10	11	12	13	14	1	16	17	18	1	20	21
0	0	0	0	6	7	8	9	10	11	12	13	14	1	16	17	18	1	20	21
0	0	0	5	6	7	8	9	10	11	12	13	14	1	16	17	18	1	20	21
0	0	4	5	6	7	8	9	10	11	12	13	14	1	16	17	18	1	20	21
0	3	4	5	6	7	8	9	10	11	12	13	14	1	16	17	18	1	20	21
2	3	4	5	6	7	8	9	10	11	12	13	14	1	16	17	18	1	20	21
